<?xml version="1.0" encoding="iso-8859-1"?>
<!-- Uploaded to: SVG Repo, www.svgrepo.com, Generator: SVG Repo Mixer Tools -->
<svg height="800px" width="800px" version="1.1" id="Layer_1" xmlns="http://www.w3.org/2000/svg" xmlns:xlink="http://www.w3.org/1999/xlink" 
	 viewBox="0 0 512 512" xml:space="preserve">
<circle style="fill:#FEE187;" cx="256" cy="256" r="256"/>
<path style="fill:#FFC61B;" d="M507.53,303.781L345.971,142.222l-101.431,186.79l-4.917-4.918L178.26,424.853l86.964,86.964
	C386.143,507.532,485.7,419.399,507.53,303.781z"/>
<circle style="fill:#273B7A;" cx="256" cy="184.889" r="99.556"/>
<path style="fill:#121149;" d="M256,85.333c-0.193,0-0.381,0.014-0.574,0.014v199.082c0.193,0,0.381,0.014,0.574,0.014
	c54.984,0,99.556-44.572,99.556-99.556S310.984,85.333,256,85.333z"/>
<circle style="fill:#FFFFFF;" cx="256" cy="184.889" r="21.333"/>
<path style="fill:#D0D1D3;" d="M256,163.556c-0.193,0-0.381,0.024-0.574,0.029v42.608c0.193,0.005,0.381,0.029,0.574,0.029
	c11.781,0,21.333-9.552,21.333-21.333S267.781,163.556,256,163.556z"/>
<path style="fill:#386895;" d="M185.32,426.667h141.36c8.092,0,14.653-6.561,14.653-14.653V299.098
	c0-8.092-6.561-14.653-14.653-14.653H185.32c-8.092,0-14.653,6.561-14.653,14.653v112.916
	C170.667,420.105,177.228,426.667,185.32,426.667z"/>
<g>
	<path style="fill:#273B7A;" d="M326.68,284.444h-71.254v142.222h71.254c8.092,0,14.653-6.561,14.653-14.653V299.098
		C341.333,291.004,334.774,284.444,326.68,284.444z"/>
	<path style="fill:#273B7A;" d="M170.667,381.271v30.742c0,8.092,6.559,14.653,14.653,14.653h141.36
		c8.092,0,14.653-6.561,14.653-14.653v-30.742L170.667,381.271L170.667,381.271z"/>
</g>
<path style="fill:#121149;" d="M255.426,381.271v45.396h71.254c8.092,0,14.653-6.561,14.653-14.653v-30.742L255.426,381.271
	L255.426,381.271z"/>
<path style="fill:#386895;" d="M354.982,345.643h-13.648v-8.62h13.648c5.782,0,10.487-4.705,10.487-10.487V256h8.62v70.537
	C374.088,337.072,365.516,345.643,354.982,345.643z"/>
<circle style="fill:#273B7A;" cx="369.778" cy="250.828" r="14.653"/>
</svg>